# xmcd
#
# Track frame offsets:
# 150
# 12988
# 26102
# 39068
# 52816
# 67781
# 80107
# 94538
# 105729
# 117942
#
# Disc length: 1787 seconds
#
#
# Revision: 0
# Processed by: cddbd v1.5PL3 Copyright (c) Steve Scherf et al.
# Submitted via: FreeRIP 2.53 
#
DISCID=6f06f90a
DTITLE=Ray Pillow - Stars Of The Grand Ole Opry
DYEAR=1900
DGENRE=Country
TTITLE0=One Too Many Memories
TTITLE1=Julie Loved Boston More Than Me
TTITLE2=She Fell Out Of Love With Me
TTITLE3=Falling In and Crawlin' Out
TTITLE4=If Drinkin' Don't Kill Me(Her Memory Will)
TTITLE5=Wasted Again
TTITLE6=Friday Night Blues
TTITLE7=Thank God And Greyhound
TTITLE8=One Man In A Two Sided Bed
TTITLE9=Selena
EXTD=First Generation Records
EXTT0=
EXTT1=
EXTT2=
EXTT3=
EXTT4=
EXTT5=
EXTT6=
EXTT7=
EXTT8=
EXTT9=
PLAYORDER=
